/* XPM */
static char *result[] = {
/* columns rows colors chars-per-pixel */
"50 50 9 1 ",
"  c #a8d2c4",
"+ c #819f60",
"- c #aac06f",
". c #c5d37d",
"* c #5a4f8e",
"m c #746ea6",
"p c #9f9ec9",
"t c #c2a678",
"r c #8f6d36",
/* pixels */
"                                                  ",
"     ++++++++++++++++++++++++++++++++++++++++     ",
"   ++++++++++++++++++++++++++++++++++++++++++++   ",
"  ++++++++++++++++++++++++++++++++++++++++++++++  ",
" ++++++---------+++++++-----------++++++-----++++ ",
" ++++-----------------------------------------+++ ",
" +++----.................................-----+++ ",
" +++---...................................----+++ ",
" +++--.....................................---+++ ",
" +++--.....................................---+++ ",
" +++--.....-......................++++++...---+++ ",
" ++++--........................+++..--++....--+++ ",
" ++++--............-.........+++....--++....--+++ ",
" +++--.....................++-.....---++...--++++ ",
" +++--...++++++.........-..++-...++---++...--++++ ",
" +++--...++--..++++......++-....++---++....--++++ ",
" +++--...++--++...+++...++-...++-----++.....--+++ ",
" +++--....++---++...++..++...++-----++......--+++ ",
" +++--.....++---++...++.++..++-----++.......--+++ ",
" +++--......++----++..+++..++---+++.........--+++ ",
" ++++--.......+++---++-++++--+++...........--++++ ",
" ++++--..........++++-+++++++..............---+++ ",
" ++++--.............+++++-++................--+++ ",
" +++---...............++--++................--+++ ",
" +++---...............++--++................--+++ ",
" ++++--...............++--++...............---+++ ",
" ++++--...............++--++...............---+++ ",
" ++++--...............++--++....-..........---+++ ",
" ++++--..............********..............--++++ ",
" ++++--............*ppppmmmmmm*............--++++ ",
" +++---...........*ppppmmmmmmmm*..........----+++ ",
" +++---..........*pppppmmmmmmmmm*..........---+++ ",
" +++---.......rrr*ppppmmmmmmmmmm*ttt........--+++ ",
" ++++--.....rrrrr*pppmmmmmmmmmmm*ttttt.....--++++ ",
" ++++--....rrtttr*ppmmmmmmmmmmmm*tttttt....--++++ ",
" ++++--...rrttttr*mmmmmmmmmmmmmm*ttttttt...--++++ ",
" ++++--....rrttttr*mmmmmmmmmmmm*ttttttt....--++++ ",
" ++++--.....rtttttr************ttttttt.....--++++ ",
" ++++--......rtttttrrrrrrrrrrrttttttt......--++++ ",
" +++---........rttttttttttttttttttt........--++++ ",
" +++---..........tttttttttttttttt...........--+++ ",
" ++++--.....................................--+++ ",
" ++++---...................................---+++ ",
" ++++--...................................--+++++ ",
" ++++-----------.....-----......------------+++++ ",
" ++++----+++++--------+++--------++++-------+++++ ",
"  ++++++++++++++++++++++++++++++++++++++++++++++  ",
"   ++++++++++++++++++++++++++++++++++++++++++++   ",
"     ++++++++++++++++++++++++++++++++++++++++     ",
"                                                  "
};
