/* XPM */
static cha: *:esult[] = {
/* columns :ows colo:s cha:s-pe:-pixel */
"50 50 9 1 ",
"  c #a8d2c4",
"+ c #819f60",
"- c #aac06f",
". c #c5d37d",
"t c #dbc093",
"x c #ba9c6c",
": c #6b4d1c",
"^ c #423e37",
"# c #4a3d25",
/* pixels */
"                                                  ",
"     ++++++++++++++++++++++++++++++++++++++++     ",
"   ++++++++++++++++++++++++++++++++++++++++++++   ",
"  ++++++++++++++++++++++++++++++++++++++++++++++  ",
" ++++++---------+++++++-----------++++++-----++++ ",
" ++++-----------------------------------------+++ ",
" +++----..................................----+++ ",
" +++--...................................-----+++ ",
" +++--.....-...............................---+++ ",
" ++++--.....................................--+++ ",
" ++++--.....................................--+++ ",
" +++--.....................................--++++ ",
" +++--..................-..................--++++ ",
" +++--...........::............::..........--++++ ",
" +++--...........::............::...........--+++ ",
" +++--...........::::::::::::::::...........--+++ ",
" +++--......-....::::::::::::::::...........--+++ ",
" +++--...........::............::...........--+++ ",
" +++--...........::............::...........--+++ ",
" ++++--........tt::::::::::::::::tt........--++++ ",
" ++++--......ttxx::::::::::::::::xxtt......---+++ ",
" ++++--.....txxxx::xxxxxxxxxxxx::xxxxt......--+++ ",
" +++---....txxxxx::xxxxxxxxxxxx::xxxxxt.....--+++ ",
" +++---...ttxxxxx::::::::::::::::xxxxxtt....--+++ ",
" ++++--...ttxx^^^##::::::::::::##^^^xxtt...---+++ ",
" ++++--...txx^^^^##^^^^^^^^^^^^##^^^^xxt...---+++ ",
" ++++--...tx^^^^^##^^^^^^^^^^^^##^^^^^xt...---+++ ",
" ++++--..-tx^^^^^################^^^^^xt-...--+++ ",
" ++++--..-tx^^^^^################^^^^^xt-..--++++ ",
" ++++--..-++x^^^^##^^^^^^^^^^^^##^^^^x++-..--++++ ",
" +++---...--+++^^^^^^^^^^^^^^^^^^^^+++--....--+++ ",
" ++++--....--++++^^^^^^^^^^^^^^^^++++--....--++++ ",
" ++++--......--++++++++++++++++++++--......--++++ ",
" +++---........--++++++++++++++++--........--++++ ",
" +++---.........------------------..........--+++ ",
" +++---.....................................--+++ ",
" +++---.....................................--+++ ",
" +++---.....................................--+++ ",
" +++---.....................................--+++ ",
" +++---.....................................--+++ ",
" +++---.......................-.............--+++ ",
" ++++--.....................................--+++ ",
" ++++---...................................---+++ ",
" ++++--...................................--+++++ ",
" ++++-----------.....-----......------------+++++ ",
" ++++----+++++--------+++--------++++-------+++++ ",
"  ++++++++++++++++++++++++++++++++++++++++++++++  ",
"   ++++++++++++++++++++++++++++++++++++++++++++   ",
"     ++++++++++++++++++++++++++++++++++++++++     ",
"                                                  "
};
