/* XPM */
static char *result[] = {
/* columns rows colors chars-per-pixel */
"50 50 4 1 ",
"  c #a8d2c4",
"+ c #819f60",
"- c #aac06f",
". c #c5d37d",
/* pixels */
"                                                  ",
"     ++++++++++++++++++++++++++++++++++++++++     ",
"   ++++++++++++++++++++++++++++++++++++++++++++   ",
"  ++++++++++++++++++++++++++++++++++++++++++++++  ",
" ++++++---------+++++++----------------------++++ ",
" ++++-----------------------------------------+++ ",
" +++----..................................----+++ ",
" +++--..................................------+++ ",
" +++--......................................--+++ ",
" ++++--.....................................+++++ ",
" ++++--.....................................+++++ ",
" +++--......................................+++++ ",
" +++--......................................+++++ ",
" +++--......................................+++++ ",
" +++--......................................+++++ ",
" +++--......................................+++++ ",
" +++--......................................+++++ ",
" +++--......................................+++++ ",
" +++--......................................+++++ ",
" ++++--.....................................+++++ ",
" ++++--.....................................+++++ ",
" ++++.......................................+++++ ",
" ++++.......................................+++++ ",
" ++++.......................................+++++ ",
" ++++.......................................+++++ ",
" ++++.......................................+++++ ",
" ++++.......................................+++++ ",
" ++++.......................................+++++ ",
" ++++.......................................+++++ ",
" ++++.......................................+++++ ",
" ++++.......................................+++++ ",
" ++++.......................................+++++ ",
" ++++.......................................+++++ ",
" ++++.......................................+++++ ",
" ++++.......................................+++++ ",
" ++++.......................................+++++ ",
" ++++.......................................+++++ ",
" ++++.......................................+++++ ",
" ++++.......................................+++++ ",
" ++++.......................................+++++ ",
" ++++.......................................+++++ ",
" ++++.......................................+++++ ",
" ++++.......................................+++++ ",
" ++++.......................................+++++ ",
" ++++.......................................+++++ ",
" ++++.......................................+++++ ",
"  ++++++++++++++++++++++++++++++++++++++++++++++  ",
"   ++++++++++++++++++++++++++++++++++++++++++++   ",
"     ++++++++++++++++++++++++++++++++++++++++     ",
"                                                  "
};
