/* XPM */
static char *result[] = {
/* columns rows colors chars-per-pixel */
"50 50 11 1 ",
"  c #a8d2c4",
"+ c #819f60",
"- c #aac06f",
". c #c5d37d",
"* c #5a4f8e",
"o c #f3f2c5",
"p c #dbd5dd",
"z c #dfb7ae",
"t c #eed9c7",
"m c #746ea6",
"t c #f7d86a",
/* pixels */
"                                                  ",
"     ++++++++++++++++++++++++++++++++++++++++     ",
"   ++++++++++++++++++++++++++++++++++++++++++++   ",
"  ++++++++++++++++++++++++++++++++++++++++++++++  ",
" ++++++---------+++++++-----------++++++-----++++ ",
" ++++-----------------------------------------+++ ",
" +++----..................................----+++ ",
" +++--...................................-----+++ ",
" +++--.....-...............................---+++ ",
" ++++--.....................................--+++ ",
" ++++--.....................................--+++ ",
" +++--.....................................--++++ ",
" +++--............****......****...........--++++ ",
" +++--...........*oooo*....*oooo*...........--+++ ",
" +++--...........*oooo*....*oooo*...........--+++ ",
" +++--......-....*zzoo******oozz*...........--+++ ",
" +++--...........*zzooppppppoozz*...........--+++ ",
" +++--...........*zzooppppppoozz*...........--+++ ",
" +++--...........*ooooppppppoooo*..-........--+++ ",
" ++++--..........*oooooooooooooo*..........--++++ ",
" ++++--........***oo*oooooooo*oo***........---+++ ",
" ++++--..........*oo*oooooooo*oo*...........--+++ ",
" +++---..........*oooooooooooooo*...........--+++ ",
" +++---........***oooooooooooooo***.........--+++ ",
" ++++--..........*ttoooooooooott*..........---+++ ",
" ++++--..........*tttoooooooottt*..........---+++ ",
" ++++--...........*tttttttttttt*...........---+++ ",
" ++++--.........**mmmmmmmmmmmmmm**..........--+++ ",
" ++++--........*pppoooootttooooppp*........--++++ ",
" ++++--........*pppooootttttoooppp*........--++++ ",
" ++++--........*pppoooottootoooppp*.........--+++ ",
" +++---........*pppooootttttoooppp*.......----+++ ",
" +++---.........****ooootttooo****.........---+++ ",
" +++---............*oooooooooo*.............--+++ ",
" ++++--...........*ppppoooopppp*...........--++++ ",
" ++++--...........*ppppoooopppp*...........--++++ ",
" ++++--...........*pppp****pppp*...........--++++ ",
" ++++--...........*pppp*..*pppp*...........--++++ ",
" +++---..-.........****....****............--++++ ",
" +++---.....................................--+++ ",
" +++---.........-...........................--+++ ",
" ++++--.....................................--+++ ",
" ++++--.......................-............---+++ ",
" ++++--...................................--+++++ ",
" ++++-----------.....-----......------------+++++ ",
" ++++----+++++--------+++--------++++-------+++++ ",
"  ++++++++++++++++++++++++++++++++++++++++++++++  ",
"   ++++++++++++++++++++++++++++++++++++++++++++   ",
"     ++++++++++++++++++++++++++++++++++++++++     ",
"                                                  "
};
